<svg xmlns="http://www.w3.org/2000/svg" width="110" height="160" viewBox="0 0 110 160" fill="none">
<rect width="110" height="160" rx="16" fill="#674188"/>
<path fill-rule="evenodd" clip-rule="evenodd" d="M56.2106 57.6697C55.9811 57.3994 55.7522 57.1413 55.4183 57C55.391 57.0182 55.3698 57.0318 55.3487 57.0453L55.3487 57.0453L55.3487 57.0453L55.3486 57.0454C55.3278 57.0587 55.3071 57.0719 55.281 57.0893C55.2489 57.1244 55.2443 57.1286 55.2327 57.1393L55.2327 57.1394L55.2327 57.1394L55.2327 57.1394C55.2235 57.1479 55.2098 57.1605 55.1746 57.1957C55.1332 57.2372 55.1292 57.2406 55.115 57.2525L55.0994 57.2658C54.8787 57.4566 54.6831 57.6777 54.4914 57.8971C54.3923 58.0127 54.2925 58.1269 54.1893 58.2389C53.6961 58.7742 53.2897 59.3557 52.9006 59.9686C52.8342 60.0737 52.7678 60.1787 52.7002 60.283C51.8953 61.5197 51.4076 62.9392 51.1052 64.376L51.0698 64.5491C50.9336 65.2079 50.8926 65.8572 50.8931 66.5288C50.8934 66.6421 50.8937 66.7555 50.8934 66.8688C50.892 67.3546 50.8946 67.8407 50.9535 68.3237C50.9841 68.4068 50.998 68.4443 51.0066 68.483C51.0137 68.5147 51.0174 68.5473 51.0239 68.6066L51.0375 68.7366C51.0925 69.2649 51.1473 69.7913 51.3096 70.2996C51.3493 70.4164 51.3884 70.5332 51.4264 70.6505C51.4624 70.7623 51.4986 70.8741 51.535 70.9859L51.5913 71.1579C51.6892 71.457 51.7881 71.7522 51.9171 72.0395C51.9739 72.1631 52.0265 72.2842 52.0745 72.4118C52.248 72.919 52.4768 73.3945 52.7175 73.8725L52.7731 73.9818L52.8261 74.0864C52.8584 74.1498 52.8897 74.2136 52.9201 74.2779L52.9218 74.2822L52.9218 74.2823C52.9726 74.4099 53.0228 74.5361 53.0822 74.66C53.7559 75.983 54.3597 77.3133 54.8268 78.724L54.8753 78.8711L54.9731 79.1622C54.9814 79.188 54.9894 79.2136 54.9973 79.2388C55.0574 79.4314 55.1122 79.6068 55.2601 79.7555C55.4166 79.8319 55.5127 79.839 55.684 79.8068C55.8616 79.5896 55.9486 79.3654 56.0367 79.1008C56.4278 77.9001 56.9066 76.7377 57.4477 75.5975L57.6 75.277L57.659 75.1525L57.7825 74.8922L57.8229 74.807C57.9139 74.6148 58.005 74.4226 58.0966 74.2306C58.3508 73.698 58.5981 73.1629 58.836 72.6228L58.9263 72.4172C59.3549 71.4505 59.6681 70.401 59.8444 69.3585L59.883 69.1211C60.1504 67.6079 60.195 65.9012 59.883 64.3896C59.8392 64.3137 59.8168 64.2749 59.803 64.2333C59.7887 64.1897 59.7838 64.143 59.7737 64.0476C59.4973 62.457 58.7428 60.7987 57.7561 59.5192C57.696 59.4469 57.6367 59.3738 57.5799 59.2988C57.2514 58.8572 56.919 58.4282 56.5405 58.0282C56.4284 57.9103 56.3174 57.7924 56.2106 57.6697ZM54.322 67.8618C54.4431 67.2421 54.705 66.575 55.0904 66.0694C55.2444 65.9217 55.3482 65.879 55.5611 65.8682C55.7972 65.9794 55.7972 65.9794 55.9498 66.1972C56.9371 67.9324 57.1517 70.0915 56.6435 72.0243L56.5876 72.2045C56.5558 72.3103 56.5241 72.416 56.4916 72.5214L56.458 72.6299C56.3944 72.8394 56.3272 73.0423 56.2432 73.2448L56.1624 73.4273C55.993 73.838 55.8281 74.2286 55.5777 74.5969L55.4787 74.581C55.2916 74.4685 55.2916 74.4685 55.1898 74.2636L55.1292 74.145C54.9265 73.7559 54.7876 73.3675 54.6779 72.9436C54.6505 72.8377 54.6209 72.7361 54.5825 72.6336C54.49 72.4003 54.4243 72.1728 54.3745 71.9267L54.3486 71.7925C54.2226 71.1827 54.1881 70.5802 54.1885 69.9585C54.1888 69.8437 54.1891 69.7288 54.1888 69.6139C54.1873 69.0902 54.195 68.5716 54.2834 68.0539L54.322 67.8618ZM40.5676 64.9873C40.2927 64.9399 40.0177 64.9066 39.7404 64.8776C39.7393 65.0905 39.7384 65.3035 39.7378 65.5164L39.7371 65.7814C39.7326 66.6074 39.7651 67.4185 39.8523 68.2408L39.8733 68.4329L39.8942 68.6337L39.9148 68.8245C39.9258 68.9268 39.9381 69.0289 39.953 69.1306C39.9825 69.1846 39.9964 69.21 40.0061 69.2369C40.0147 69.2608 40.02 69.2859 40.03 69.3333L40.0541 69.4496L40.081 69.5784L40.1091 69.7154L40.1222 69.7776C40.1657 69.9847 40.2092 70.1917 40.2451 70.4003C40.2656 70.5216 40.2793 70.6024 40.2978 70.682C40.3348 70.8409 40.3914 70.9953 40.5608 71.4575L40.5608 71.4575L40.5608 71.4576L40.5608 71.4576L40.5608 71.4576L40.5608 71.4577L40.5608 71.4577L40.5608 71.4577L40.5608 71.4577L40.5608 71.4578L40.5609 71.4578L40.5609 71.4578L40.5609 71.4579L40.5609 71.4579L40.5609 71.4579L40.5609 71.4579L40.5609 71.458L40.644 71.6824C40.9182 72.4485 41.2397 73.2113 41.7095 73.8792L41.8133 74.0216C41.9151 74.1659 42.0175 74.3094 42.1223 74.4515L42.2385 74.6064C42.5569 75.0319 42.8829 75.4314 43.2654 75.8015L43.4079 75.9355C43.7249 76.2362 44.0543 76.5098 44.4065 76.7684C44.4944 76.8323 44.5823 76.8962 44.6696 76.9609L44.7305 77.0061C45.0027 77.2087 45.2744 77.4108 45.5805 77.5603C45.7676 77.6475 45.9484 77.7415 46.128 77.8434C46.473 78.0402 46.8202 78.2327 47.1697 78.4216L47.5004 78.6004L47.5616 78.6336C47.7458 78.7335 47.93 78.8333 48.115 78.9319C48.6857 79.2359 49.2176 79.5706 49.7384 79.9544C49.8025 80.0018 49.8667 80.0491 49.931 80.0961C50.6167 80.5976 51.2427 81.1475 51.859 81.7302L52.0187 81.8824L52.158 82.0126C52.3226 82.1688 52.4295 82.2344 52.6563 82.2618C52.6634 81.9523 52.6541 81.6527 52.6118 81.3459L52.5922 81.2123L52.5507 80.9209C52.5288 80.7707 52.5068 80.6206 52.4857 80.4703L52.4749 80.3935C52.4155 79.9686 52.3564 79.5454 52.2504 79.129C52.2093 78.977 52.1728 78.831 52.1447 78.6758C52.0548 78.0049 51.9306 77.3538 51.7442 76.7034C51.6942 76.5296 51.6453 76.3563 51.6014 76.1809C51.5279 75.8732 51.4452 75.5724 51.3418 75.2732L51.2744 75.0849C50.9005 74.0344 50.4719 72.9813 49.898 72.0226L49.7861 71.8419C49.3137 71.0609 48.8092 70.313 48.1982 69.6324L48.1798 69.6126C48.0811 69.5066 47.983 69.4012 47.8895 69.2905C47.6364 68.9882 47.3509 68.7253 47.0567 68.4641L46.9691 68.3864C46.3473 67.8287 45.6914 67.3028 44.9725 66.8745C44.8548 66.808 44.7402 66.7407 44.6284 66.6647C44.3781 66.4901 44.125 66.3458 43.8491 66.2157L43.7068 66.1502L43.4102 66.0117L43.1421 65.8877C42.8807 65.7632 42.6216 65.6508 42.353 65.5528C42.2707 65.5156 42.1728 65.4719 42.0607 65.4219C42.0182 65.403 41.9736 65.3831 41.9271 65.3623C41.5945 65.2138 40.9894 65.055 40.8341 65.0332L40.7339 65.0157L40.5676 64.9873ZM40.8566 65.1037V65.1434L40.8702 65.1447C40.8661 65.1297 40.8616 65.116 40.8566 65.1037ZM44.9158 73.0161C44.8626 72.7169 44.8366 72.4762 44.9925 72.2074C45.2063 72.0816 45.3529 72.0797 45.5973 72.093L45.7466 72.1077L45.7466 72.1078C46.092 72.1948 46.2659 72.2386 46.431 72.3043C46.5983 72.3709 46.7566 72.46 47.0754 72.6394L47.1173 72.6806L47.141 72.7043C47.1712 72.7244 47.1785 72.7293 47.1782 72.7299C47.1781 72.73 47.1772 72.7298 47.176 72.7294C47.1711 72.7279 47.1613 72.725 47.1817 72.7457C47.887 73.3081 48.5235 74.0232 48.9523 74.8157C48.9987 74.9061 49.0462 74.9958 49.0951 75.0849C49.2321 75.2571 49.3235 75.4302 49.4145 75.6296L49.4705 75.756C49.5912 76.027 49.6947 76.2688 49.7745 76.5615C49.8011 76.628 49.8144 76.6546 49.8244 76.6745C49.8326 76.6909 49.8386 76.7028 49.8478 76.7286L49.8543 76.7477L49.8543 76.7477L49.9425 77.0341C49.9697 77.1538 49.9712 77.1683 49.9881 77.3259L49.9987 77.424C49.8747 77.4263 49.7507 77.4262 49.6267 77.424C49.5599 77.3906 49.4924 77.3586 49.424 77.3285C48.3753 76.8715 47.4368 76.2808 46.6169 75.4803L46.4907 75.3507C45.8354 74.7339 45.1617 73.9013 44.9158 73.0161ZM71.2595 64.8245C71.2621 65.1278 71.264 65.4312 71.2653 65.7346C71.2658 65.8375 71.2666 65.9403 71.2675 66.0432C71.2723 66.5879 71.2677 67.1167 71.184 67.656C71.1488 67.8832 71.1221 68.1107 71.0959 68.339C70.9912 69.2188 70.8807 70.0511 70.5685 70.885C70.5394 70.9899 70.5115 71.095 70.4854 71.2007C70.4017 71.5164 70.2742 71.8091 70.1433 72.1078L70.0565 72.3129C69.8612 72.7724 69.6485 73.2162 69.3991 73.6495L69.3173 73.7923C69.0723 74.198 68.7727 74.5585 68.4708 74.9217L68.4162 74.9875C68.3115 75.1148 68.2102 75.2447 68.1088 75.3748L68.1087 75.3749L68.1069 75.3773C67.081 76.6577 65.5502 77.4822 64.13 78.2458C63.8707 78.3854 63.6119 78.526 63.3531 78.6667L63.2114 78.7433C62.9416 78.8899 62.6765 79.0425 62.4139 79.2017C62.2692 79.2893 62.1236 79.3756 61.978 79.4619C61.4431 79.7809 60.9362 80.0934 60.4696 80.5075C60.3745 80.583 60.2793 80.6583 60.1839 80.7334C59.919 80.9495 59.6799 81.1849 59.4408 81.4285C59.2531 81.6194 59.0608 81.8 58.8564 81.973C58.7715 82.0468 58.6937 82.1242 58.6159 82.2054C58.503 82.315 58.503 82.315 58.3967 82.315C58.3935 82.14 58.3917 81.965 58.39 81.79L58.3873 81.6422C58.3853 81.3499 58.4112 81.0843 58.4748 80.7992C58.5173 80.5999 58.5427 80.3983 58.5683 80.1964L58.5794 80.1087C58.7093 79.1321 58.7489 78.834 58.8199 78.5436C58.8511 78.416 58.8883 78.2898 58.9419 78.1083L58.9419 78.1083C58.9908 77.9192 59.022 77.7283 59.0535 77.5358L59.0535 77.5358L59.0535 77.5357L59.0536 77.5357L59.0536 77.5356L59.0536 77.5356L59.0536 77.5356L59.0536 77.5356L59.0536 77.5355L59.0536 77.5355L59.0536 77.5355L59.0536 77.5355L59.0536 77.5354L59.0536 77.5354L59.0536 77.5353L59.0544 77.5304C59.2817 76.171 59.7826 74.9078 60.3425 73.6556C60.3878 73.5542 60.4328 73.4528 60.4776 73.3512C61.0481 72.0583 61.811 70.8222 62.7551 69.7686L62.8663 69.6427C63.1566 69.316 63.4588 69.0036 63.7684 68.6954L63.9047 68.5584C64.7819 67.6823 65.7596 67.008 66.8479 66.4193L66.9764 66.3489C67.361 66.1381 67.7428 65.9291 68.1549 65.7764C68.3337 65.7091 68.5086 65.6321 68.6835 65.5552L68.7792 65.5131C68.8488 65.4882 68.8601 65.4835 68.8788 65.4756C68.8982 65.4675 68.9256 65.4561 69.0338 65.4155L69.0871 65.3902L69.0929 65.3872L69.0924 65.3873C69.0906 65.3879 69.087 65.3889 69.1402 65.3623C69.179 65.3429 69.218 65.3323 69.26 65.321L69.2812 65.3152C69.4848 65.26 69.5865 65.2325 69.6869 65.2006C69.7871 65.1687 69.8859 65.1326 70.0835 65.0604C70.4307 64.9218 70.8864 64.8245 71.2595 64.8245ZM63.0741 73.4368L62.9414 73.5716C62.1108 74.457 61.543 75.5883 61.1606 76.7329L61.1064 76.8818C61.0337 77.0848 60.9802 77.2604 61.0011 77.4772C61.286 77.4118 61.5508 77.3305 61.8183 77.2114L61.9276 77.1628C63.1786 76.5943 64.3327 75.782 65.147 74.6596L65.2774 74.4895C65.6384 74.0114 66.0142 73.4568 66.1037 72.852L66.122 72.7308C66.1341 72.5581 66.1428 72.4281 66.0394 72.2836C65.8279 72.1094 65.618 72.0669 65.3484 72.0824C64.4461 72.2366 63.6973 72.8011 63.0741 73.4368ZM47.9875 84.9248C47.8874 84.9258 47.7871 84.9267 47.6867 84.9268L46.6543 84.8425C46.6279 84.8297 46.6102 84.8219 46.5919 84.8159C46.5681 84.8081 46.5433 84.8034 46.4973 84.7947L46.3769 84.7773C46.2864 84.7638 46.1959 84.7504 46.1054 84.7372C45.2297 84.6113 44.2772 84.2479 43.7069 83.5444L43.6205 83.4314C43.4064 83.1691 43.375 83.0158 43.4079 82.6871C43.8241 82.2709 44.2278 82.2687 44.7899 82.315C44.809 82.3341 44.8212 82.3463 44.8354 82.3554C44.8608 82.3716 44.8926 82.3779 44.9811 82.3952L44.9811 82.3952C45.9009 82.559 46.7419 83.0073 47.5204 83.5134C47.5819 83.5548 47.65 83.599 47.7223 83.6459L47.7223 83.6459C48.2082 83.9611 48.8809 84.3976 48.9889 84.92C48.7968 84.9211 48.6048 84.922 48.4128 84.9226L48.175 84.9233C48.1126 84.9237 48.0501 84.9243 47.9875 84.9248ZM39.0395 77.9889L39.1768 77.9886C40.4587 77.9889 40.8631 77.989 41.0482 78.0465C41.5088 78.0974 42.3365 78.2467 43.5985 78.6157C44.0736 78.8745 45.1226 79.4697 45.5182 79.7802C45.538 79.7958 45.5568 79.8115 45.5746 79.8271L45.5923 79.8359C45.7479 79.9234 45.8744 80.0226 46.0124 80.1353C46.1347 80.2184 46.2573 80.3003 46.3811 80.3812C46.9694 80.7701 47.5397 81.1764 48.0853 81.6239L48.2217 81.7323C48.5779 82.0176 48.9115 82.3225 49.2438 82.6348C49.3677 82.751 49.4936 82.8634 49.6234 82.9729C50.0867 83.3731 50.526 83.8206 50.9204 84.2887C51.0262 84.4081 51.1392 84.5186 51.2533 84.63L51.2678 84.6442C51.5006 84.8743 51.7092 85.1165 51.9128 85.3727C52.0005 85.4822 52.091 85.5866 52.1846 85.6908L52.2843 85.8237C52.2525 85.9191 52.2397 85.9574 52.2148 85.9845C52.198 86.0028 52.1756 86.0159 52.1383 86.0378L52.0181 86.0862L51.8857 86.1406L51.7461 86.1959L51.4766 86.3055L51.3442 86.3586C51.2381 86.4017 51.133 86.4474 51.0282 86.4935C50.8343 86.5742 50.6386 86.6389 50.4373 86.6976L50.3214 86.7317C49.9707 86.8321 49.616 86.9088 49.2583 86.9797L49.2582 86.9797L49.2582 86.9797L49.2582 86.9797C49.1476 87 49.0925 87.0101 49.0387 87.0252C48.9853 87.0401 48.9332 87.06 48.8294 87.0997C48.7089 87.1107 48.5881 87.1191 48.4673 87.1262C48.3421 87.1324 48.2796 87.1355 48.2175 87.1422C48.1557 87.1489 48.0942 87.1591 47.9714 87.1795C47.768 87.2149 47.5675 87.2166 47.3619 87.2184H47.3618L47.3306 87.2186L47.1857 87.2202C47.0304 87.2215 46.8752 87.2222 46.7199 87.2226L46.5598 87.223C45.7708 87.2232 45.0179 87.1832 44.243 87.0229C44.1001 86.9936 43.9569 86.9679 43.8132 86.9431C43.0747 86.8118 42.3396 86.6222 41.6774 86.2606C41.5462 86.1952 41.4172 86.1486 41.2781 86.1024C40.9498 85.985 40.656 85.8256 40.355 85.651L40.1923 85.5577C39.8183 85.3414 39.4548 85.1173 39.1026 84.8668L38.9161 84.736C37.9635 84.0644 37.9635 84.0644 37.6143 83.6972C37.4115 83.4895 37.2088 83.286 36.9865 83.0992C36.544 82.7162 36.1729 82.2641 35.8174 81.8016C35.6713 81.6124 35.5201 81.4305 35.3616 81.2516C34.98 80.8205 34.6594 80.3558 34.3422 79.876C34.2685 79.7673 34.1913 79.6622 34.1127 79.557C34.0504 79.4653 34.0226 79.4243 34.0101 79.379C34 79.3423 34 79.3029 34 79.2316C34.0927 79.1779 34.1858 79.1248 34.279 79.0721L34.3325 79.0415C34.3588 79.02 34.5631 78.9114 34.7973 78.8092V78.8063L34.8408 78.7904C34.9327 78.7513 35.0276 78.7141 35.1171 78.6841C35.1385 78.6769 35.1584 78.6722 35.177 78.6698C35.3512 78.6079 35.5259 78.5471 35.7009 78.4873L35.8109 78.4495C36.8705 78.0931 37.9281 77.9891 39.0395 77.9889ZM71.1114 78.0001L70.9495 78.0011C70.8056 78.0017 70.6757 78.0087 70.534 78.0344C70.4441 78.0543 70.3534 78.071 70.2626 78.0857C69.355 78.2257 68.506 78.4324 67.6452 78.7531V78.763C67.4965 78.8233 67.3749 78.8809 67.3002 78.9195L67.2866 78.9257C67.1958 78.9747 67.1048 79.0235 67.0127 79.0702L66.9058 79.1238L66.7963 79.1789L66.6851 79.2349L66.6782 79.2384L66.6782 79.2384L66.6781 79.2384L66.6781 79.2385L66.6781 79.2385L66.678 79.2385L66.678 79.2385L66.678 79.2385L66.6779 79.2385L66.6779 79.2386L66.6779 79.2386L66.6778 79.2386L66.6778 79.2386C66.5401 79.3083 66.4026 79.3779 66.2632 79.4442C65.9582 79.5639 65.6921 79.7313 65.4162 79.9061L65.3065 79.9759C64.5654 80.4456 63.8309 80.9278 63.142 81.4725L63.021 81.5707C62.6821 81.8333 62.3613 82.1086 62.0485 82.4015C61.8843 82.5553 61.7178 82.7046 61.546 82.85L61.5459 82.85L61.5457 82.8502C61.4916 82.8949 61.4672 82.9151 61.4439 82.9365L61.4354 82.9444C61.3923 82.9687 61.1538 83.2034 60.8725 83.4801C60.7505 83.6001 60.6205 83.7281 60.4948 83.8502C60.4948 83.8502 59.0121 85.38 59.0131 85.4289L59.0113 85.4308L58.9283 85.5446C58.8235 85.6861 58.7396 85.8252 58.6625 85.9832C58.7689 86.0312 58.8753 86.079 58.9818 86.1266L59.1143 86.1859C60.0298 86.5983 60.9769 86.8665 61.9629 87.054L62.2237 87.0997C62.7758 87.215 63.3156 87.2194 63.8778 87.2179C64.0546 87.2169 64.2314 87.216 64.4082 87.2158C64.5251 87.2158 64.642 87.2157 64.7588 87.2155L64.927 87.2149C65.41 87.2144 65.8739 87.1767 66.3501 87.0968L66.4692 87.0764L66.7204 87.0336L66.9542 86.9933L67.1348 86.963L67.2864 86.9368C67.4285 86.9125 67.5581 86.8808 67.6956 86.8368L67.8578 86.7807C68.2447 86.655 68.6267 86.521 69.006 86.3737L69.1866 86.3022C70.052 85.9727 70.8822 85.5309 71.6361 84.9927C71.7094 84.9404 71.7828 84.8884 71.8565 84.8366L71.9327 84.7831L71.9328 84.7831L71.9328 84.7831L71.9328 84.783L71.9328 84.783L71.9329 84.783L71.9329 84.783L71.9329 84.783L71.9329 84.783L71.9329 84.7829L71.933 84.7829L71.933 84.7829L71.933 84.7829C72.2878 84.5339 72.6429 84.2848 72.967 83.9963C73.0663 83.9028 73.1655 83.81 73.2685 83.7206C73.5117 83.5124 73.743 83.2946 73.9704 83.0692L74.0998 82.9397C74.3714 82.6681 74.639 82.3979 74.8805 82.099C74.9844 81.9657 75.0875 81.8354 75.2003 81.7095C75.6143 81.2605 75.9959 80.7858 76.3455 80.2849C76.4772 80.0918 76.6144 79.904 76.7541 79.7167C76.8756 79.5557 76.9672 79.4325 76.9999 79.2316C76.3121 78.7729 75.5343 78.5141 74.7377 78.3178C74.6057 78.2866 74.4739 78.2546 74.3423 78.2215C73.8875 78.0596 73.4397 77.9969 72.9579 77.9954L72.7864 77.9966L72.4179 77.9969C72.2265 77.9979 72.0351 77.9989 71.8437 77.999C71.7176 77.999 71.5915 77.9991 71.4654 77.9994L71.2849 77.9999L71.1114 78.0001ZM64.3801 82.9777L64.5624 82.8998C65.1313 82.5496 65.7754 82.3323 66.4459 82.3416C66.8754 82.3517 67.1764 82.3637 67.4857 82.6872C67.5391 82.874 67.5526 82.9997 67.509 83.1889C67.2134 83.7159 66.83 84.0179 66.2886 84.2739L66.1569 84.3352C65.1688 84.6315 64.6715 84.7806 64.1634 84.8477C63.6486 84.9156 63.1228 84.8994 62.0643 84.8668H62.0642L62.1095 84.7424C62.4157 84.0328 63.6938 83.2728 64.3801 82.9777ZM65.8912 90.8742L66.0349 90.9392C66.3882 91.1048 66.7175 91.3046 67.0473 91.5122L67.1749 91.5924C67.4475 91.7666 67.7082 91.9522 67.9641 92.1501C67.9371 92.4017 67.8223 92.6012 67.7 92.8138L67.6652 92.8745L67.5921 93.0039C67.1545 93.7736 66.6616 94.4839 66.0507 95.1272L65.9769 95.2054C65.0186 96.2149 63.7791 96.8952 62.4363 97.2537L62.2767 97.3019C61.7128 97.4514 61.1315 97.4354 60.5521 97.4194L60.5515 97.4194L60.551 97.4194L60.3964 97.4153L60.3103 97.4132C60.4917 96.9327 60.8796 96.5603 61.2476 96.207L61.3201 96.1373L61.4395 96.0169C61.6235 95.8342 61.812 95.6567 62.0012 95.4794L62.1096 95.3773C62.2908 95.2074 62.4737 95.0409 62.662 94.8791C63.0439 94.5468 63.4401 94.113 63.523 93.598C63.533 93.4552 63.538 93.3848 63.5261 93.3174C63.5145 93.252 63.4871 93.1893 63.4331 93.0657C63.2149 92.8779 63.007 92.8243 62.7241 92.8304C61.6179 92.9235 60.7139 93.6832 60.0111 94.4878C59.3244 95.3647 58.926 96.3128 58.7688 97.4132H57.759C57.7565 97.1599 57.7544 96.9066 57.7531 96.6533C57.7526 96.5674 57.7519 96.4815 57.7509 96.3956C57.7457 95.8958 57.7407 95.403 57.8653 94.9146L57.8672 94.9126C57.8865 94.83 57.9474 94.6024 57.9865 94.4577C58.185 93.5614 58.7 92.7211 59.3004 92.0438L59.4007 91.9204C60.9613 90.042 63.7907 89.827 65.8912 90.8742ZM51.3757 91.7032C50.3714 90.8067 49.1476 90.2408 47.7771 90.2813C47.6636 90.2856 47.5502 90.2895 47.4365 90.2911C46.8746 90.298 46.3782 90.3685 45.8512 90.5676L45.7466 90.6084C44.7598 90.9923 43.8991 91.5429 43.0358 92.1501L43.1502 92.4934C43.173 92.6396 43.3545 93.0623 43.9659 93.9591L43.9926 94.0108L44.0038 94.0146C44.7484 95.0986 45.6959 95.9363 46.0769 96.2198V96.2025C46.1863 96.287 46.3438 96.3716 46.7214 96.5744L46.7215 96.5745L46.8594 96.6457C48.0547 97.2639 49.1934 97.4499 50.5303 97.4132V97.2006C50.2042 96.7114 49.7951 96.2897 49.3565 95.9014C49.2564 95.8135 49.1569 95.7249 49.058 95.6356C48.9291 95.5187 48.8001 95.4021 48.6699 95.2867C48.4433 95.0995 48.2337 94.9098 48.0392 94.6883C47.6056 94.1778 47.3947 93.7892 47.4474 93.1071C47.455 93.0486 47.4762 93.0081 47.4868 93.0011C47.4882 93.0002 47.4913 92.9968 47.4961 92.9917C47.5296 92.956 47.645 92.8332 47.806 92.8414C48.4311 92.815 49.0956 92.9661 49.5999 93.3261L49.733 93.426C51.0866 94.4172 51.7566 95.6445 52.2751 97.2226L52.3374 97.4132H53.241C53.2497 97.018 53.2543 96.6231 53.2481 96.2277C53.1859 94.5008 52.6434 92.9142 51.3757 91.7032ZM55.2209 103.688C55.4183 103.717 55.6111 103.724 55.7922 103.633C56.3843 103.01 56.5164 102.078 56.5097 101.25C56.5091 101.172 56.5088 101.094 56.5089 101.016C56.5096 100.798 56.5096 100.58 56.5085 100.362C56.5074 100.124 56.5072 99.887 56.5073 99.6496C56.5076 99.2376 56.5072 98.8257 56.5061 98.4137C56.5044 97.8135 56.5035 97.2134 56.5032 96.6133C56.5028 95.64 56.5016 94.6668 56.4996 93.6936C56.4976 92.7457 56.496 91.7978 56.495 90.8499L56.4949 90.6723L56.494 89.7892C56.4918 87.2978 56.488 84.8064 56.4832 82.315C56.4019 82.315 56.362 82.315 56.3252 82.3256C56.2898 82.3357 56.2572 82.3556 56.1933 82.3945C55.9846 82.5395 55.7873 82.6685 55.5497 82.7602C55.4272 82.7351 55.3657 82.7225 55.3095 82.6978C55.2527 82.6729 55.2012 82.6357 55.0979 82.5609C54.8995 82.3994 54.7689 82.3502 54.5166 82.315C54.5154 84.7984 54.5144 87.2817 54.5139 89.7651L54.5137 90.6629L54.5136 90.8436C54.5134 91.8117 54.513 92.7798 54.5125 93.7479C54.512 94.7443 54.5117 95.7408 54.5116 96.7372C54.5115 97.3514 54.5114 97.9656 54.5109 98.5798C54.5106 99.0046 54.5105 99.4294 54.5105 99.8542L54.5105 99.9355C54.5106 100.154 54.5106 100.372 54.5104 100.59C54.5101 100.817 54.5099 101.044 54.51 101.272L54.5102 101.52L54.5097 101.754L54.51 101.966C54.51 102.095 54.5111 102.214 54.5289 102.335C54.5156 102.389 54.6006 102.785 54.7644 103.171C54.9261 103.552 55.1697 103.692 55.2209 103.688Z" fill="url(#paint0_linear_163_652)"/>
<defs>
<linearGradient id="paint0_linear_163_652" x1="55.5" y1="57" x2="55.5" y2="103.707" gradientUnits="userSpaceOnUse">
<stop stop-color="#F7EFE5"/>
<stop offset="1" stop-color="white"/>
</linearGradient>
</defs>
</svg>