<svg xmlns="http://www.w3.org/2000/svg" width="18" height="18" viewBox="0 0 18 18" fill="none">
<path d="M12.0711 1.36318C12.6493 0.7849 13.4335 0.459981 14.2512 0.4599C15.069 0.459819 15.8532 0.784584 16.4315 1.36275C17.0098 1.94091 17.3347 2.72512 17.3348 3.54285C17.3349 4.36058 17.0101 5.14485 16.4319 5.72313L15.6642 6.49259C16.1877 7.01818 16.4813 7.73001 16.4805 8.47183C16.4797 9.21364 16.1845 9.92483 15.6599 10.4493L14.1236 11.9856C14.064 12.0474 13.9927 12.0966 13.9139 12.1305C13.8351 12.1644 13.7503 12.1823 13.6645 12.1831C13.5787 12.1839 13.4936 12.1676 13.4141 12.1351C13.3347 12.1026 13.2625 12.0547 13.2018 11.994C13.1411 11.9334 13.0931 11.8613 13.0605 11.7819C13.028 11.7025 13.0116 11.6174 13.0123 11.5316C13.013 11.4458 13.0308 11.361 13.0646 11.2821C13.0985 11.2032 13.1477 11.1319 13.2094 11.0723L14.7457 9.53507C15.028 9.253 15.187 8.87049 15.1878 8.47139C15.1886 8.07229 15.0312 7.68915 14.75 7.40594L6.13522 16.0224C5.78512 16.3728 5.34449 16.6189 4.86256 16.7333L0.89811 17.6768C0.790734 17.7025 0.678573 17.7002 0.572323 17.6702C0.466074 17.6402 0.369279 17.5835 0.291171 17.5055C0.213062 17.4275 0.156244 17.3307 0.126135 17.2245C0.0960268 17.1183 0.0936316 17.0061 0.119178 16.8987L1.06355 12.9334C1.17815 12.4518 1.42458 12.0115 1.77441 11.6616L12.0711 1.36318Z" fill="#545556"/>
</svg>