<svg xmlns="http://www.w3.org/2000/svg" width="100" height="178" viewBox="0 0 100 178" fill="none">
<path d="M97.4508 100.574C101.551 126.274 82.5508 149.274 55.9508 149.274C29.3508 149.274 -2.14916 131.574 2.45084 105.974C7.95084 75.1736 23.0508 56.5736 49.0508 56.9736C75.6508 57.3736 92.6508 70.9736 97.4508 100.574Z" fill="#C4A2CC" stroke="#231F20" stroke-width="3" stroke-miterlimit="10"/>
<path d="M55.8508 93.9735C55.8508 93.9735 60.5508 101.174 65.9508 93.4735" stroke="black" stroke-width="3" stroke-linecap="round" stroke-linejoin="round"/>
<path d="M60.2509 110.574C60.9509 111.974 63.0509 114.274 70.0509 113.574C76.0509 112.974 77.3509 110.574 77.6509 109.174C78.0509 107.374 77.0509 105.474 75.9509 104.374C74.5509 102.974 72.8509 102.074 71.0509 101.874L67.1509 101.374C67.1509 101.374 67.0509 101.374 66.9509 101.374C63.9509 101.374 61.4509 103.774 60.4509 106.274C59.8509 107.774 59.7509 109.374 60.3509 110.574H60.2509Z" fill="#FAD0E2"/>
<path d="M16.8508 112.074C17.5508 113.474 19.6508 115.774 26.6508 115.074C32.6508 114.474 33.9508 112.074 34.2508 110.674C34.6508 108.874 33.6508 106.974 32.5508 105.874C31.1508 104.474 29.4508 103.574 27.6508 103.374L23.7508 102.874C23.7508 102.874 23.6508 102.874 23.5508 102.874C20.5508 102.874 18.0508 105.274 17.0508 107.774C16.4508 109.274 16.3508 110.874 16.9508 112.074H16.8508Z" fill="#FAD0E2"/>
<path d="M34.3509 99.1735C36.8914 99.1735 38.9509 97.114 38.9509 94.5735C38.9509 92.033 36.8914 89.9735 34.3509 89.9735C31.8104 89.9735 29.7509 92.033 29.7509 94.5735C29.7509 97.114 31.8104 99.1735 34.3509 99.1735Z" fill="black"/>
<path d="M34.8508 93.5736C34.8508 94.6736 33.2508 94.5736 33.1508 94.5736C33.0508 94.5736 30.9508 94.5736 30.9508 93.5736C30.9508 92.5736 31.8508 91.6736 32.9508 91.6736C34.0508 91.6736 34.9508 92.5736 34.9508 93.5736H34.8508Z" fill="white"/>
<path d="M41.3509 112.374C41.2509 112.574 47.7509 120.174 54.4509 111.874" stroke="black" stroke-width="3" stroke-linecap="round" stroke-linejoin="round"/>
<path d="M46.3509 65.0735L45.7509 27.4735" stroke="black" stroke-width="3" stroke-linecap="round" stroke-linejoin="round"/>
<path d="M44.7508 50.9735C44.7508 50.9735 28.0508 26.9735 20.8508 40.4735C13.6508 53.9735 45.2508 51.8735 45.2508 51.8735C45.2508 51.8735 61.7508 29.6735 71.6508 39.6735C81.5508 49.6735 47.2508 51.6735 47.2508 51.6735" fill="#674289"/>
<path d="M44.7508 50.9735C44.7508 50.9735 28.0508 26.9735 20.8508 40.4735C13.6508 53.9735 45.2508 51.8735 45.2508 51.8735C45.2508 51.8735 61.7508 29.6735 71.6508 39.6735C81.5508 49.6735 47.2508 51.6735 47.2508 51.6735" stroke="black" stroke-width="3" stroke-linecap="round" stroke-linejoin="round"/>
<path d="M45.6508 31.4735C45.6508 31.4735 35.7508 6.77352 27.7508 18.0735C19.7508 29.3735 44.8508 32.9735 44.8508 32.9735C44.8508 32.9735 51.1508 12.4735 59.1508 18.8735C67.1508 25.2735 47.1508 32.2735 47.1508 32.2735" fill="#674289"/>
<path d="M45.6508 31.4735C45.6508 31.4735 35.7508 6.77352 27.7508 18.0735C19.7508 29.3735 44.8508 32.9735 44.8508 32.9735C44.8508 32.9735 51.1508 12.4735 59.1508 18.8735C67.1508 25.2735 47.1508 32.2735 47.1508 32.2735" stroke="black" stroke-width="3" stroke-linecap="round" stroke-linejoin="round"/>
<path d="M45.5509 28.4736C45.5509 28.4736 36.8509 18.9735 45.9509 5.27354C55.5509 -9.02646 48.9509 28.1735 46.0509 27.8735" fill="#674289"/>
<path d="M45.5509 28.4736C45.5509 28.4736 36.8509 18.9735 45.9509 5.27354C55.5509 -9.02646 48.9509 28.1735 46.0509 27.8735" stroke="black" stroke-width="3" stroke-linecap="round" stroke-linejoin="round"/>
<path opacity="0.3" d="M50.2508 177.074C75.3246 177.074 95.6508 174.119 95.6508 170.474C95.6508 166.828 75.3246 163.874 50.2508 163.874C25.1771 163.874 4.85083 166.828 4.85083 170.474C4.85083 174.119 25.1771 177.074 50.2508 177.074Z" fill="#4D1D5B"/>
</svg>