<svg xmlns="http://www.w3.org/2000/svg" width="20" height="16" viewBox="0 0 20 16" fill="none">
<path d="M18.9408 7.64866C18.0841 3.77567 16.7948 1.70852 14.8824 1.14387C14.4804 1.02593 14.0634 0.967022 13.6444 0.96898C13.0907 0.96898 12.6084 1.10388 12.0983 1.24686C11.4836 1.41933 10.7852 1.61522 9.76701 1.61522C8.74878 1.61522 8.05003 1.41973 7.43409 1.24727C6.92356 1.10388 6.44171 0.96898 5.88958 0.96898C5.45637 0.967457 5.02505 1.02618 4.60801 1.14346C2.70565 1.70569 1.41721 3.77204 0.54802 7.64623C-0.386601 11.8153 0.0734395 14.4475 1.83807 15.0582C2.07996 15.1435 2.33447 15.1874 2.59094 15.1882C3.79981 15.1882 4.76917 14.1813 5.43156 13.357C6.17998 12.4239 7.05604 11.9506 9.76701 11.9506C12.1884 11.9506 13.1905 12.2789 14.056 13.357C14.6001 14.0347 15.1142 14.5089 15.6272 14.8074C16.3094 15.204 16.9911 15.292 17.6531 15.0646C18.696 14.7088 19.2938 13.7681 19.4303 12.268C19.5341 11.1177 19.3741 9.60676 18.9408 7.64866ZM7.82829 7.43136H6.53582V8.72383C6.53582 8.89523 6.46773 9.0596 6.34654 9.18079C6.22535 9.30199 6.06097 9.37007 5.88958 9.37007C5.71819 9.37007 5.55381 9.30199 5.43262 9.18079C5.31143 9.0596 5.24334 8.89523 5.24334 8.72383V7.43136H3.95087C3.77947 7.43136 3.6151 7.36327 3.49391 7.24208C3.37271 7.12089 3.30463 6.95651 3.30463 6.78512C3.30463 6.61373 3.37271 6.44936 3.49391 6.32816C3.6151 6.20697 3.77947 6.13888 3.95087 6.13888H5.24334V4.84641C5.24334 4.67501 5.31143 4.51064 5.43262 4.38945C5.55381 4.26826 5.71819 4.20017 5.88958 4.20017C6.06097 4.20017 6.22535 4.26826 6.34654 4.38945C6.46773 4.51064 6.53582 4.67501 6.53582 4.84641V6.13888H7.82829C7.99969 6.13888 8.16406 6.20697 8.28525 6.32816C8.40644 6.44936 8.47453 6.61373 8.47453 6.78512C8.47453 6.95651 8.40644 7.12089 8.28525 7.24208C8.16406 7.36327 7.99969 7.43136 7.82829 7.43136ZM11.221 7.59292C11.0613 7.59292 10.9051 7.54554 10.7723 7.45678C10.6394 7.36802 10.5359 7.24186 10.4747 7.09425C10.4136 6.94665 10.3976 6.78422 10.4288 6.62753C10.4599 6.47083 10.5369 6.32689 10.6498 6.21392C10.7628 6.10095 10.9068 6.02401 11.0634 5.99285C11.2201 5.96168 11.3826 5.97767 11.5302 6.03881C11.6778 6.09995 11.8039 6.20349 11.8927 6.33633C11.9815 6.46917 12.0288 6.62535 12.0288 6.78512C12.0288 6.99936 11.9437 7.20483 11.7922 7.35632C11.6407 7.50781 11.4353 7.59292 11.221 7.59292ZM12.9982 9.37007C12.8383 9.37007 12.6821 9.32264 12.5492 9.23379C12.4163 9.14494 12.3128 9.01866 12.2517 8.87094C12.1906 8.72322 12.1747 8.56069 12.2061 8.40394C12.2374 8.24719 12.3145 8.10325 12.4277 7.99036C12.5409 7.87747 12.685 7.80069 12.8418 7.76975C12.9987 7.73881 13.1612 7.7551 13.3087 7.81655C13.4563 7.878 13.5823 7.98185 13.6708 8.11496C13.7594 8.24807 13.8064 8.40444 13.806 8.56429C13.8055 8.77819 13.7201 8.98313 13.5687 9.13419C13.4172 9.28524 13.2121 9.37007 12.9982 9.37007ZM12.9982 5.81576C12.8384 5.81576 12.6822 5.76839 12.5494 5.67963C12.4166 5.59086 12.313 5.4647 12.2519 5.3171C12.1907 5.16949 12.1748 5.00707 12.2059 4.85037C12.2371 4.69368 12.314 4.54974 12.427 4.43677C12.54 4.3238 12.6839 4.24686 12.8406 4.21569C12.9973 4.18452 13.1597 4.20052 13.3073 4.26166C13.4549 4.3228 13.5811 4.42634 13.6699 4.55918C13.7586 4.69202 13.806 4.8482 13.806 5.00797C13.806 5.22221 13.7209 5.42767 13.5694 5.57917C13.4179 5.73066 13.2124 5.81576 12.9982 5.81576ZM14.7753 7.59292C14.6156 7.59292 14.4594 7.54554 14.3266 7.45678C14.1937 7.36802 14.0902 7.24186 14.029 7.09425C13.9679 6.94665 13.9519 6.78422 13.9831 6.62753C14.0142 6.47083 14.0912 6.32689 14.2042 6.21392C14.3171 6.10095 14.4611 6.02401 14.6178 5.99285C14.7745 5.96168 14.9369 5.97767 15.0845 6.03881C15.2321 6.09995 15.3582 6.20349 15.447 6.33633C15.5358 6.46917 15.5831 6.62535 15.5831 6.78512C15.5831 6.99936 15.498 7.20483 15.3465 7.35632C15.1951 7.50781 14.9896 7.59292 14.7753 7.59292Z" fill="#545556"/>
</svg>