<svg xmlns="http://www.w3.org/2000/svg" width="105" height="115" viewBox="0 0 105 115" fill="none">
<path fill-rule="evenodd" clip-rule="evenodd" d="M54.2352 1.63534C53.6748 0.975347 53.116 0.345095 52.3005 0C52.2338 0.0444713 52.1819 0.0777515 52.1303 0.110785C52.0795 0.14332 52.0291 0.175616 51.9653 0.218129C51.8868 0.303754 51.8757 0.314016 51.8473 0.340287C51.8249 0.361072 51.7916 0.391876 51.7055 0.477948C51.6043 0.579124 51.5945 0.587392 51.5599 0.616554L51.5599 0.616573C51.5501 0.624851 51.5382 0.634815 51.5218 0.649063C50.983 1.11481 50.5052 1.65475 50.0373 2.19059C49.7952 2.47284 49.5514 2.75157 49.2996 3.02524C48.0951 4.33226 47.1028 5.75206 46.1527 7.24872C45.9906 7.50535 45.8285 7.76182 45.6633 8.0165C43.6978 11.0361 42.5069 14.5023 41.7686 18.0107L41.6821 18.4334C41.3496 20.042 41.2495 21.6275 41.2506 23.2674C41.2514 23.5442 41.2521 23.8209 41.2514 24.0977C41.2479 25.2839 41.2543 26.4708 41.3981 27.6501C41.473 27.8531 41.5067 27.9446 41.5279 28.039C41.5452 28.1166 41.5541 28.1961 41.5702 28.3408L41.5702 28.3409L41.6034 28.6584V28.6584C41.7376 29.9485 41.8714 31.2339 42.2676 32.475C42.3647 32.76 42.4601 33.0453 42.5529 33.3317C42.6409 33.6048 42.7293 33.8778 42.8181 34.1506L42.9556 34.5707C43.1945 35.301 43.4361 36.0219 43.7511 36.7233C43.8898 37.0253 44.0183 37.321 44.1354 37.6325C44.5592 38.871 45.1179 40.032 45.7056 41.1993L45.8413 41.4661L45.9707 41.7216C46.0496 41.8763 46.126 42.0322 46.2004 42.1891L46.2044 42.1994C46.3284 42.5112 46.451 42.8195 46.5962 43.1222C48.2412 46.3527 49.7156 49.601 50.8561 53.0456L50.9747 53.4047L51.2135 54.1157C51.2337 54.1787 51.2532 54.241 51.2725 54.3027C51.4193 54.7729 51.5531 55.2012 51.9142 55.5644C52.2964 55.751 52.5311 55.7681 52.9495 55.6896C53.3832 55.1592 53.5955 54.6118 53.8107 53.9656C54.7657 51.0339 55.9347 48.1954 57.2562 45.4112C57.3802 45.1504 57.5042 44.8896 57.628 44.6287L57.7721 44.3248L58.0736 43.6891L58.1721 43.4813C58.3945 43.0119 58.617 42.5425 58.8406 42.0737C59.4614 40.773 60.0652 39.4666 60.6462 38.1476L60.8666 37.6457C61.9133 35.2851 62.6781 32.7226 63.1086 30.1769L63.2029 29.5973C63.8557 25.9023 63.9646 21.7348 63.2029 18.044L63.2028 18.0439L63.2028 18.0439C63.0958 17.8586 63.0411 17.7639 63.0075 17.6622C62.9724 17.5558 62.9604 17.4419 62.9359 17.2089V17.2088V17.2088C62.261 13.3248 60.4186 9.27574 58.0092 6.1514C57.8624 5.97478 57.7175 5.79643 57.5789 5.61329C56.7768 4.53484 55.9652 3.48744 55.0407 2.51056C54.767 2.22277 54.4961 1.93481 54.2352 1.63534ZM49.6236 26.5223C49.9193 25.0092 50.5587 23.3802 51.5 22.1457C51.876 21.7849 52.1294 21.6808 52.6493 21.6544C52.935 21.7889 53.0791 21.8568 53.1972 21.9558C53.3173 22.0565 53.4104 22.1894 53.5984 22.4576C56.0094 26.6946 56.5332 31.9668 55.2923 36.6863L55.1559 37.1264C55.0783 37.3845 55.0007 37.6426 54.9214 37.9002L54.8395 38.1649C54.6842 38.6765 54.5199 39.1721 54.3148 39.6664L54.1176 40.1121C53.7039 41.1149 53.3012 42.0688 52.6899 42.968L52.448 42.9292C52.2246 42.7949 52.1104 42.7263 52.023 42.6327C51.9317 42.5349 51.8696 42.4098 51.7426 42.1541L51.5948 41.8646C51.0997 40.9145 50.7606 39.9662 50.4926 38.9311C50.4256 38.6724 50.3536 38.4243 50.2598 38.174C50.0337 37.6045 49.8733 37.0489 49.7519 36.4479L49.6885 36.1204C49.3808 34.6312 49.2966 33.16 49.2976 31.6421C49.2984 31.3616 49.2991 31.0811 49.2984 30.8006C49.2947 29.5219 49.3135 28.2554 49.5293 26.9914L49.6236 26.5223ZM16.0371 19.5033C15.3658 19.3875 14.6944 19.3062 14.0172 19.2355C14.0145 19.7555 14.0123 20.2754 14.0109 20.7953L14.0091 21.4424C13.9983 23.4592 14.0775 25.4399 14.2905 27.4477L14.3417 27.9168L14.3929 28.4071L14.4431 28.8731C14.47 29.1228 14.5 29.3721 14.5364 29.6206L14.5364 29.6206C14.6085 29.7523 14.6424 29.8143 14.6661 29.8799C14.6871 29.9383 14.7001 29.9996 14.7245 30.1155L14.7833 30.3994L14.8489 30.7139L14.9177 31.0485L14.9496 31.2004C15.0559 31.7061 15.1621 32.2114 15.2497 32.7208C15.3996 33.6079 15.3996 33.6079 16.0209 35.3034L16.2237 35.8516C16.8933 37.7221 17.6783 39.5847 18.8255 41.2155L19.079 41.5633C19.3275 41.9156 19.5775 42.266 19.8334 42.613L20.1174 42.9913C20.8948 44.0303 21.6908 45.0056 22.6249 45.9095L22.9727 46.2366C23.7469 46.9708 24.5512 47.639 25.4114 48.2705C25.626 48.4264 25.8405 48.5824 26.0536 48.7403L26.2023 48.8509C26.8671 49.3455 27.5305 49.839 28.2779 50.204C28.7348 50.417 29.1763 50.6464 29.6148 50.8953C30.4574 51.376 31.3052 51.8459 32.1586 52.3071C32.4279 52.4525 32.6971 52.5981 32.9661 52.7439L33.1127 52.8233L33.1142 52.8242L33.1144 52.8243L33.1146 52.8244L33.1149 52.8245L33.1151 52.8246L33.1153 52.8247L33.1155 52.8248L33.1157 52.825L33.1159 52.8251L33.1162 52.8252L33.1164 52.8253L33.1166 52.8254L33.1168 52.8255L33.117 52.8256L33.1172 52.8258L33.1175 52.8259C33.5667 53.0694 34.0159 53.3129 34.4668 53.5534C35.8606 54.2957 37.1593 55.1128 38.4309 56.05C38.5875 56.1657 38.7443 56.2811 38.9014 56.3961C40.5756 57.6206 42.1043 58.9633 43.6093 60.3862L43.9992 60.7578L44.3394 61.0758C44.7412 61.4572 45.0024 61.6172 45.5562 61.6843C45.5736 60.9284 45.5507 60.197 45.4474 59.4478L45.3995 59.1215C45.3659 58.8843 45.3322 58.6472 45.2984 58.4101C45.2447 58.0433 45.1912 57.6766 45.1395 57.3096L45.1133 57.122C44.9682 56.0847 44.8237 55.0512 44.565 54.0345C44.4646 53.6634 44.3755 53.3069 44.307 52.928C44.0873 51.2898 43.7842 49.7 43.3288 48.1116C43.2067 47.6874 43.0875 47.2642 42.9802 46.8359C42.8007 46.0844 42.5987 45.35 42.3464 44.6195L42.1816 44.1596C41.2687 41.5945 40.2222 39.023 38.8208 36.6822L38.5475 36.241C37.3939 34.3338 36.1621 32.5077 34.6701 30.8457L34.625 30.7973L34.625 30.7973L34.625 30.7973L34.625 30.7972L34.6249 30.7972C34.3841 30.5385 34.1444 30.2812 33.9162 30.011C33.2981 29.2728 32.6012 28.6307 31.8827 27.993L31.6687 27.8032C30.1505 26.4416 28.5488 25.1574 26.7934 24.1116C26.506 23.9492 26.2262 23.7849 25.9531 23.5992C25.342 23.1729 24.7238 22.8206 24.0501 22.503L23.7028 22.3429L22.9783 22.0047C22.7601 21.9039 22.5419 21.803 22.3238 21.702C21.6858 21.398 21.0533 21.1237 20.3978 20.8845C20.1966 20.7935 19.9573 20.6868 19.6834 20.5647C19.5795 20.5184 19.4707 20.4698 19.3571 20.4191C18.5443 20.0562 17.065 19.668 16.6873 19.6153L16.4432 19.5728L16.0371 19.5033ZM16.7428 19.7873V19.8846L16.7762 19.8877C16.7662 19.8508 16.7551 19.8172 16.7428 19.7873ZM26.655 39.108C26.5251 38.3775 26.4615 37.7898 26.8421 37.1335C27.3643 36.8263 27.7223 36.8216 28.319 36.8541L28.6835 36.8901L28.6835 36.8901L28.6838 36.8901C29.5272 37.1026 29.9517 37.2096 30.3548 37.3701C30.7633 37.5327 31.15 37.7502 31.9282 38.1882C31.9847 38.2436 32.0078 38.2662 32.0307 38.2889L32.0886 38.3467L32.0886 38.3467C32.1622 38.3958 32.1802 38.4077 32.1794 38.4091L32.1792 38.4092L32.1786 38.4092C32.1777 38.4091 32.176 38.4086 32.174 38.408C32.1621 38.4044 32.1382 38.3972 32.1878 38.4478C33.9101 39.821 35.4645 41.5673 36.5114 43.5024C36.6248 43.723 36.7409 43.9422 36.8603 44.1596C37.1947 44.58 37.418 45.0028 37.64 45.4897L37.7769 45.7985C38.0716 46.4601 38.3244 47.0506 38.5193 47.7651C38.5842 47.9273 38.6166 47.9923 38.641 48.041L38.641 48.0411L38.6411 48.0412C38.6611 48.0812 38.6756 48.1102 38.6981 48.1732C38.703 48.187 38.7083 48.2023 38.7141 48.2198L38.7142 48.2198L38.929 48.9181C38.9958 49.2114 38.9995 49.2463 39.0408 49.6316L39.0412 49.6354C39.0484 49.7025 39.0567 49.7801 39.0667 49.8713C38.7639 49.8769 38.461 49.8766 38.1582 49.8713C37.9951 49.7898 37.8303 49.7115 37.6633 49.6381C35.1026 48.5221 32.811 47.0799 30.8088 45.1251L30.5006 44.8086C28.9003 43.3025 27.2553 41.2696 26.655 39.108ZM90.9828 19.1057C90.9893 19.8465 90.9939 20.5873 90.997 21.3282C90.9983 21.5793 91.0001 21.8304 91.0023 22.0816C91.0141 23.4118 91.0029 24.703 90.7984 26.0197C90.7124 26.5744 90.6474 27.13 90.5832 27.6876C90.3277 29.8359 90.0578 31.8681 89.2955 33.9044C89.2245 34.1604 89.1564 34.4172 89.0927 34.6751C88.8882 35.446 88.5768 36.1608 88.2572 36.89C88.1864 37.057 88.1157 37.224 88.0452 37.391C87.5684 38.5131 87.0489 39.5966 86.4401 40.6546L86.2404 41.0035C85.642 41.994 84.9104 42.8743 84.1733 43.7612L84.1732 43.7614L84.0399 43.9218C83.7842 44.2327 83.5369 44.5498 83.2895 44.8672L83.2888 44.8681L83.2846 44.8735C80.7796 48.0001 77.0416 50.0133 73.5737 51.8779C72.9403 52.2187 72.3083 52.5621 71.6765 52.9057L71.3304 53.0928C70.6716 53.4507 70.0243 53.8232 69.3832 54.2119C69.0297 54.426 68.6743 54.6367 68.3187 54.8473C67.0126 55.6262 65.7748 56.3894 64.6354 57.4004C64.4032 57.5848 64.1707 57.7687 63.9378 57.9522C63.2908 58.4798 62.7071 59.0546 62.1231 59.6495C61.665 60.1155 61.1952 60.5566 60.6961 60.9789C60.4889 61.1592 60.2989 61.3481 60.109 61.5463C59.9476 61.703 59.8806 61.768 59.8008 61.795C59.7443 61.8141 59.6813 61.8141 59.5736 61.8141C59.5659 61.3868 59.5614 60.9595 59.5574 60.5322L59.5508 60.1711C59.5458 59.4575 59.6091 58.809 59.7644 58.1128C59.8681 57.6262 59.9303 57.1339 59.9926 56.6408L60.0198 56.4269L60.0198 56.4266L60.0198 56.4261L60.0199 56.4259L60.0199 56.4255L60.02 56.425L60.02 56.4247C60.3369 54.0417 60.4337 53.314 60.607 52.605C60.6831 52.2935 60.774 51.9856 60.9049 51.5425L60.9049 51.5423L60.905 51.5421C61.0244 51.0802 61.1007 50.6136 61.1777 50.1432L61.1798 50.1309C61.7347 46.8116 62.9578 43.7272 64.325 40.6695C64.4356 40.422 64.5456 40.1743 64.6548 39.9263C66.0479 36.7694 67.9108 33.7509 70.2164 31.1783L70.4878 30.8708C71.1966 30.0732 71.9345 29.3104 72.6905 28.5577L73.0233 28.2233C75.1655 26.084 77.5528 24.4376 80.2102 23.0001L80.5241 22.828C81.4632 22.3133 82.3955 21.803 83.4017 21.4302C83.8385 21.2659 84.2655 21.0779 84.6926 20.8899L84.8294 20.8297L84.9262 20.7872C85.0962 20.7264 85.1237 20.7149 85.1695 20.6958C85.2168 20.676 85.2837 20.6481 85.548 20.549L85.6504 20.5003C85.6856 20.4835 85.6925 20.4801 85.6924 20.4799L85.6912 20.4802C85.6867 20.4815 85.6779 20.484 85.8078 20.4191C85.9026 20.3717 85.9978 20.3459 86.1004 20.3181L86.1521 20.3039L86.1523 20.3039C86.6493 20.1693 86.8977 20.102 87.1427 20.0241C87.3874 19.9464 87.6287 19.8582 88.1111 19.6818L88.1112 19.6818C88.9589 19.3433 90.0719 19.1057 90.9828 19.1057ZM70.9951 40.1354L70.6712 40.4645C68.6431 42.6265 67.2564 45.3887 66.3227 48.1838L66.1904 48.5473C66.0128 49.0429 65.8821 49.4718 65.9333 50.0011C66.629 49.8414 67.2755 49.6429 67.9288 49.3521L68.1957 49.2336C71.2505 47.8453 74.0684 45.8619 76.0569 43.1211C76.1629 42.9825 76.269 42.8441 76.3753 42.7058C77.2568 41.5384 78.1745 40.1841 78.3931 38.7074L78.4378 38.4113C78.4674 37.9898 78.4885 37.6723 78.236 37.3195C77.7197 36.8941 77.2072 36.7904 76.5487 36.8282C74.3456 37.2047 72.5171 38.5831 70.9951 40.1354ZM34.1557 68.1868C33.9111 68.1891 33.6662 68.1914 33.4213 68.1915L30.9001 67.9857C30.8357 67.9544 30.7924 67.9354 30.7476 67.9208C30.6896 67.9018 30.6291 67.8903 30.5168 67.8689L30.5167 67.8689L30.2228 67.8266C30.0018 67.7935 29.7808 67.7609 29.5597 67.7287C27.4214 67.4211 25.0955 66.5339 23.7029 64.816L23.492 64.5402C22.9692 63.8997 22.8926 63.5253 22.9728 62.7228C23.989 61.7064 24.9748 61.7009 26.3474 61.8141C26.394 61.8607 26.4239 61.8906 26.4586 61.9128C26.5207 61.9524 26.5983 61.9676 26.8143 62.0098C29.0604 62.41 31.1139 63.5045 33.0149 64.7403C33.1651 64.8414 33.3315 64.9494 33.508 65.0639C34.6944 65.8336 36.3372 66.8994 36.6008 68.1749C36.1319 68.1776 35.663 68.1798 35.1941 68.1813L34.6133 68.183C34.461 68.1839 34.3084 68.1854 34.1557 68.1868ZM12.3057 51.2506L12.641 51.2498C15.7706 51.2506 16.7583 51.2509 17.2103 51.3913C18.3349 51.5155 20.3563 51.88 23.4385 52.7811C24.5986 53.413 27.1603 54.8664 28.1262 55.6247C28.1749 55.6628 28.2209 55.7012 28.2644 55.7397L28.3069 55.7606C28.6866 55.9743 28.9956 56.2164 29.3325 56.4918C29.6312 56.6947 29.9308 56.8946 30.2329 57.0922C31.6694 58.0417 33.0621 59.0338 34.3943 60.1265L34.7274 60.3912C35.5973 61.0878 36.4118 61.8325 37.2233 62.595C37.5257 62.8786 37.8332 63.1531 38.1501 63.4205C39.2816 64.3979 40.3543 65.4904 41.3173 66.6334C41.5756 66.9252 41.8517 67.1949 42.1302 67.467L42.1303 67.4671L42.1655 67.5015C42.7341 68.0633 43.2435 68.6549 43.7407 69.2804C43.9547 69.5477 44.1757 69.8026 44.4044 70.0572L44.6477 70.3817C44.5701 70.6146 44.5389 70.7082 44.4779 70.7744C44.4369 70.8188 44.3824 70.8509 44.2913 70.9045L44.2912 70.9045L43.9978 71.0227L43.6743 71.1555L43.3336 71.2904L42.6755 71.5582L42.3521 71.6877C42.093 71.793 41.8364 71.9045 41.5804 72.0171C41.1071 72.2142 40.6292 72.3722 40.1375 72.5155L39.8546 72.5988C38.9981 72.8438 38.1322 73.0313 37.2587 73.2044C36.9885 73.2539 36.8538 73.2786 36.7225 73.3154C36.5921 73.3519 36.4651 73.4004 36.2119 73.497L36.2117 73.4971L36.2115 73.4972L36.2114 73.4972C35.9171 73.5241 35.6222 73.5448 35.3272 73.5621H35.327L35.3265 73.5622C35.0213 73.5772 34.8688 73.5848 34.7173 73.6011C34.5662 73.6174 34.416 73.6424 34.1162 73.6923C33.6195 73.7788 33.1298 73.7829 32.6278 73.7871L32.5514 73.7878L32.1976 73.7916C31.8185 73.7949 31.4395 73.7965 31.0603 73.7974L30.6694 73.7985C28.7427 73.799 26.9041 73.7014 25.0119 73.3097C24.663 73.2382 24.3134 73.1755 23.9625 73.1149C22.1591 72.7944 20.364 72.3313 18.7473 71.4485C18.4268 71.2887 18.1117 71.1751 17.7721 71.0622C16.9704 70.7755 16.2531 70.3862 15.518 69.9598L15.1208 69.732C14.2074 69.204 13.32 68.6568 12.4598 68.0451L12.0046 67.7256C10.387 66.5853 9.89425 66.238 9.45742 65.8307C9.26627 65.6524 9.08582 65.4627 8.82651 65.1901L8.82618 65.1897L8.82591 65.1894L8.82571 65.1892C8.33049 64.6821 7.83551 64.1851 7.29257 63.7288C6.21209 62.7938 5.30604 61.6898 4.43773 60.5604C4.08117 60.0985 3.71187 59.6542 3.32485 59.2176C2.39301 58.1649 1.61025 57.0301 0.835586 55.8585C0.655703 55.5931 0.467019 55.3365 0.275297 55.0796C0.123169 54.8557 0.055106 54.7555 0.0246546 54.645C0 54.5555 0 54.4592 0 54.285C0.22636 54.1538 0.45368 54.0243 0.681397 53.8955L0.812994 53.8203C0.879677 53.7666 1.37697 53.5023 1.94685 53.2537V53.2465L2.05504 53.2071C2.27885 53.1119 2.51017 53.0212 2.7282 52.9481C2.78025 52.9307 2.82873 52.9192 2.87387 52.9132C3.29945 52.7622 3.72588 52.6137 4.15328 52.4676L4.42205 52.3754C7.00941 51.505 9.5918 51.2512 12.3057 51.2506ZM90.6209 51.2779L90.2256 51.2804C89.8742 51.282 89.557 51.2989 89.211 51.3618C88.9914 51.4102 88.7702 51.4511 88.5482 51.4869C86.332 51.8288 84.259 52.3337 82.157 53.1167V53.1409C81.7953 53.2876 81.4993 53.4278 81.3167 53.522L81.2815 53.538L81.2814 53.5381C81.0595 53.6577 80.8373 53.7768 80.6126 53.891L80.3516 54.0218L80.0841 54.1564L79.8127 54.2931L79.7959 54.3016C79.4594 54.4719 79.123 54.6422 78.7824 54.8042C78.0376 55.0965 77.3878 55.5052 76.714 55.9321L76.4462 56.1024C74.6367 57.2494 72.843 58.4269 71.1608 59.7569L70.8653 59.9967C70.0377 60.6379 69.2544 61.3102 68.4906 62.0253C68.0896 62.4008 67.6831 62.7654 67.2636 63.1204C67.131 63.2299 67.0712 63.2792 67.0144 63.3317L66.9934 63.3512C66.8874 63.4113 66.3055 63.9838 65.6193 64.6588L65.6192 64.6589C65.3213 64.952 65.0037 65.2645 64.6968 65.5628C64.6968 65.5628 61.0788 69.2955 61.0786 69.4174L61.0742 69.4224L60.8714 69.7002C60.6156 70.0457 60.4106 70.3853 60.2225 70.7712L60.618 70.9491L61.0022 71.1213L61.3257 71.2661C63.5613 72.273 65.8739 72.9279 68.2816 73.3857C68.4939 73.4227 68.7062 73.4599 68.9184 73.4973C70.2667 73.779 71.5847 73.7897 72.9576 73.786C73.3894 73.7836 73.821 73.7812 74.2528 73.7809C74.5381 73.781 74.8235 73.7806 75.1088 73.78L75.5194 73.7787C76.6989 73.7774 77.8318 73.6853 78.9945 73.4904L79.2854 73.4405L79.8988 73.336L80.4697 73.2376L80.9108 73.1636L81.2809 73.0997C81.6278 73.0402 81.9443 72.963 82.2802 72.8553L82.6761 72.7184C83.621 72.4114 84.5536 72.0843 85.4798 71.7245L85.9209 71.5501C88.0341 70.7455 90.0613 69.6667 91.9023 68.3526C92.0811 68.2248 92.2605 68.0978 92.4404 67.9714L92.6267 67.8406L92.6268 67.8405C93.4934 67.2324 94.3605 66.6239 95.1522 65.9194C95.3946 65.6912 95.6369 65.4647 95.8883 65.2464C96.4822 64.7379 97.047 64.2061 97.6023 63.6558L97.9183 63.3394C98.5814 62.6762 99.2349 62.0165 99.8246 61.2868C100.078 60.9612 100.33 60.643 100.605 60.3355C101.617 59.2393 102.548 58.0802 103.402 56.8569C103.724 56.3856 104.058 55.9269 104.4 55.4695C104.696 55.0765 104.92 54.7757 105 54.285C103.32 53.1651 101.421 52.533 99.4758 52.0538C99.1535 51.9775 98.8317 51.8993 98.5105 51.8185C97.3998 51.4232 96.3064 51.2701 95.13 51.2665L94.7111 51.2694C94.4111 51.2695 94.1112 51.2698 93.8112 51.2701C93.3438 51.2726 92.8764 51.275 92.409 51.2752L92.2071 51.2753L91.9046 51.2755L91.4855 51.2762L91.0445 51.2775L90.6209 51.2779ZM74.184 63.4322L74.6292 63.2421C76.0184 62.3868 77.5913 61.8564 79.2286 61.879C80.2774 61.9036 81.0122 61.9329 81.7676 62.7228C81.898 63.1792 81.931 63.486 81.8244 63.9479C81.1026 65.2347 80.1664 65.9722 78.8443 66.5974L78.5229 66.747L78.5228 66.747L78.5224 66.7472C76.1097 67.4705 74.8955 67.8346 73.6548 67.9984C72.3981 68.1644 71.1143 68.1248 68.5299 68.0451H68.5298H68.5297H68.5296H68.5295L68.6397 67.7412C69.3874 66.0087 72.5083 64.1529 74.184 63.4322ZM77.874 82.7139L78.2249 82.8727C79.0877 83.277 79.8916 83.765 80.697 84.2717L81.0086 84.4677C81.6743 84.8928 82.311 85.3463 82.9359 85.8294C82.8698 86.4437 82.5895 86.9309 82.2908 87.4499L82.2905 87.4505C82.2624 87.4994 82.2341 87.5486 82.2058 87.5981L82.0274 87.9141C80.9588 89.7935 79.7553 91.528 78.2634 93.0989L78.0834 93.2897C75.7432 95.7547 72.7165 97.4159 69.4377 98.2915L69.0478 98.4091C67.671 98.7741 66.2515 98.735 64.8366 98.6961C64.6396 98.6906 64.4428 98.6852 64.2461 98.6809C64.6891 97.5076 65.6364 96.5982 66.535 95.7356C66.5943 95.6787 66.6534 95.622 66.7121 95.5654L67.0036 95.2713C67.4528 94.8252 67.9131 94.3918 68.375 93.959L68.6399 93.7095C69.0822 93.2946 69.5289 92.8882 69.9888 92.493C70.9214 91.6817 71.8888 90.6224 72.0913 89.3648C72.1157 89.0162 72.1277 88.8444 72.0987 88.6798C72.0705 88.5199 72.0036 88.3669 71.8718 88.0652C71.3389 87.6066 70.8312 87.4756 70.1404 87.4906C67.4393 87.718 65.2318 89.573 63.5155 91.5376C61.8388 93.6788 60.866 95.9939 60.4822 98.6809H58.0162C58.0102 98.0623 58.005 97.4439 58.0019 96.8253C58.0006 96.6156 57.9989 96.4058 57.9966 96.1961C57.9837 94.9757 57.9716 93.7724 58.2758 92.5797L58.2809 92.5746C58.3277 92.3736 58.4752 91.8227 58.5706 91.4693C59.0545 89.2787 60.313 87.2249 61.7801 85.5698L62.025 85.2686C65.8359 80.6819 72.7448 80.1568 77.874 82.7139ZM42.4291 84.7382C39.9768 82.5492 36.9885 81.1673 33.642 81.2662C33.3646 81.2767 33.0878 81.2861 32.8102 81.29C31.438 81.307 30.2259 81.4791 28.939 81.9654L28.6836 82.0649C26.274 83.0022 24.1723 84.3467 22.0643 85.8295L22.344 86.6687C22.4004 87.0268 22.844 88.0585 24.3347 90.2455L24.4005 90.3729L24.4283 90.3821C26.2464 93.0291 28.5601 95.0745 29.4903 95.7668V95.7247C29.7575 95.9311 30.1422 96.1376 31.0642 96.6328L31.401 96.8067C34.3198 98.3162 37.1003 98.7706 40.3647 98.6809V98.1617C39.5685 96.9672 38.5694 95.9375 37.4986 94.9894C37.2542 94.7746 37.0111 94.5584 36.7696 94.3403C36.4549 94.055 36.1399 93.7701 35.822 93.4884C35.2687 93.0311 34.7568 92.5681 34.282 92.0272C33.2232 90.7806 32.7081 89.8317 32.8368 88.1661C32.8552 88.0234 32.9072 87.9244 32.933 87.9073L32.9351 87.9056L32.9394 87.9015C32.9434 87.8975 32.9489 87.8917 32.9557 87.8844C33.0375 87.7973 33.3192 87.4974 33.7125 87.5175C35.2388 87.4531 36.8615 87.822 38.0928 88.701L38.4178 88.945C41.7233 91.3653 43.3592 94.362 44.6254 98.2154L44.7775 98.6809H46.984C47.0051 97.7158 47.0163 96.7515 47.0013 95.7862C46.8494 91.5694 45.5247 87.6951 42.4291 84.7382ZM51.8188 114.004C52.3008 114.073 52.7717 114.09 53.2139 113.869C54.6597 112.347 54.9823 110.072 54.966 108.051C54.9643 107.859 54.9637 107.668 54.9639 107.477C54.9657 106.945 54.9656 106.413 54.963 105.881C54.9602 105.301 54.9597 104.721 54.9601 104.142C54.9607 103.136 54.9599 102.13 54.9572 101.124C54.9529 99.6584 54.9507 98.193 54.95 96.7275C54.9489 94.3511 54.946 91.9747 54.9412 89.5984C54.9364 87.2838 54.9323 84.9692 54.9301 82.6545L54.9297 82.2209L54.9276 80.0645C54.9222 73.981 54.913 67.8976 54.9011 61.8141C54.7025 61.8141 54.6052 61.8141 54.5153 61.8399C54.4289 61.8646 54.3494 61.9132 54.1934 62.0083C53.6836 62.3622 53.2018 62.6773 52.6217 62.9013C52.3227 62.8399 52.1724 62.8091 52.0351 62.7488C51.8964 62.688 51.7708 62.5971 51.5185 62.4145C51.034 62.0202 50.7151 61.9 50.0989 61.8141C50.096 67.878 50.0937 73.9419 50.0924 80.0058L50.0919 82.1979L50.0918 82.6393C50.0912 85.0031 50.0903 87.367 50.0891 89.7308C50.0879 92.1639 50.087 94.597 50.0867 97.0302C50.0866 98.5299 50.0862 100.03 50.0852 101.529C50.0845 102.567 50.084 103.604 50.0841 104.641C50.0842 105.24 50.0844 105.838 50.0838 106.437C50.0832 106.992 50.0827 107.548 50.083 108.103L50.0833 108.708L50.0822 109.279L50.0829 109.797C50.0828 110.113 50.0857 110.404 50.1289 110.697C50.0952 110.827 50.303 111.795 50.7039 112.741C51.0988 113.672 51.6945 114.014 51.8188 114.004Z" fill="url(#paint0_linear_58_410)"/>
<defs>
<linearGradient id="paint0_linear_58_410" x1="52.5" y1="0" x2="52.5" y2="114.05" gradientUnits="userSpaceOnUse">
<stop offset="0.31" stop-color="#4D4DA1"/>
<stop offset="1" stop-color="#9093E5"/>
</linearGradient>
</defs>
</svg>