<svg xmlns="http://www.w3.org/2000/svg" width="17" height="16" viewBox="0 0 17 16" fill="none">
<path fill-rule="evenodd" clip-rule="evenodd" d="M5.2233 3.76936C5.2233 2.85526 5.58642 1.9786 6.23279 1.33224C6.87915 0.685877 7.75581 0.322754 8.6699 0.322754C9.584 0.322754 10.4607 0.685877 11.107 1.33224C11.7534 1.9786 12.1165 2.85526 12.1165 3.76936C12.1165 4.68345 11.7534 5.56011 11.107 6.20647C10.4607 6.85284 9.584 7.21596 8.6699 7.21596C7.75581 7.21596 6.87915 6.85284 6.23279 6.20647C5.58642 5.56011 5.2233 4.68345 5.2233 3.76936ZM5.2233 8.93926C4.08068 8.93926 2.98486 9.39316 2.1769 10.2011C1.36895 11.0091 0.915047 12.1049 0.915047 13.2475C0.915047 13.9331 1.18739 14.5906 1.67216 15.0753C2.15693 15.5601 2.81443 15.8325 3.5 15.8325H13.8398C14.5254 15.8325 15.1829 15.5601 15.6676 15.0753C16.1524 14.5906 16.4248 13.9331 16.4248 13.2475C16.4248 12.1049 15.9709 11.0091 15.1629 10.2011C14.3549 9.39316 13.2591 8.93926 12.1165 8.93926H5.2233Z" fill="#545556"/>
</svg>