<svg xmlns="http://www.w3.org/2000/svg" width="100" height="153" viewBox="0 0 100 153" fill="none">
<path d="M97.4508 78.2774C101.551 103.977 82.5508 126.977 55.9508 126.977C29.3508 126.977 -2.14916 109.277 2.45084 83.6774C7.95084 52.8774 23.0508 34.2774 49.0508 34.6774C75.6508 35.0774 92.6508 48.6774 97.4508 78.2774Z" fill="#C4A2CC" stroke="#231F20" stroke-width="3" stroke-miterlimit="10"/>
<path d="M61.7509 88.0774C62.4509 89.4774 64.5509 91.7774 71.5509 91.0774C77.5509 90.4774 78.8509 88.0774 79.1509 86.6774C79.5509 84.8774 78.5509 82.9774 77.4509 81.8774C76.0509 80.4774 74.3509 79.5774 72.5509 79.3774L68.6509 78.8774C68.6509 78.8774 68.5509 78.8774 68.4509 78.8774C65.4509 78.8774 62.9509 81.2774 61.9509 83.7774C61.3509 85.2774 61.2509 86.8774 61.8509 88.0774H61.7509Z" fill="#FAD0E2"/>
<path d="M14.8508 88.8774C15.5508 90.2774 17.6508 92.5774 24.6508 91.8774C30.6508 91.2774 31.9508 88.8774 32.2508 87.4774C32.6508 85.6774 31.6508 83.7774 30.5508 82.6774C29.1508 81.2774 27.4508 80.3774 25.6508 80.1774L21.7508 79.6774C21.7508 79.6774 21.6508 79.6774 21.5508 79.6774C18.5508 79.6774 16.0508 82.0774 15.0508 84.5774C14.4508 86.0774 14.3508 87.6774 14.9508 88.8774H14.8508Z" fill="#FAD0E2"/>
<path d="M35.3508 75.7774C37.8914 75.7774 39.9509 73.7179 39.9509 71.1774C39.9509 68.6369 37.8914 66.5774 35.3508 66.5774C32.8103 66.5774 30.7509 68.6369 30.7509 71.1774C30.7509 73.7179 32.8103 75.7774 35.3508 75.7774Z" fill="black"/>
<path d="M35.6508 70.1774C35.6508 71.2774 34.0509 71.1774 33.9509 71.1774C33.8509 71.1774 31.7509 71.1774 31.7509 70.1774C31.7509 69.1774 32.6509 68.2774 33.7509 68.2774C34.8509 68.2774 35.7509 69.1774 35.7509 70.1774H35.6508Z" fill="white"/>
<path d="M60.1508 76.8774C62.6913 76.8774 64.7508 74.8179 64.7508 72.2774C64.7508 69.7369 62.6913 67.6774 60.1508 67.6774C57.6103 67.6774 55.5508 69.7369 55.5508 72.2774C55.5508 74.8179 57.6103 76.8774 60.1508 76.8774Z" fill="black"/>
<path d="M60.5509 71.7774C60.5509 72.8774 58.9509 72.7774 58.8509 72.7774C58.7509 72.7774 56.6509 72.7774 56.6509 71.7774C56.6509 70.7774 57.5509 69.8774 58.6509 69.8774C59.7509 69.8774 60.6509 70.7774 60.6509 71.7774H60.5509Z" fill="white"/>
<path d="M46.1509 48.4774L46.5509 20.8774" stroke="black" stroke-width="3" stroke-linecap="round" stroke-linejoin="round"/>
<path d="M46.1508 19.8774C46.1508 19.8774 35.3508 1.37739 19.5508 9.67739C3.75083 17.9774 46.1508 19.8774 46.1508 19.8774Z" fill="#674289" stroke="black" stroke-width="3" stroke-linecap="round" stroke-linejoin="round"/>
<path d="M46.5508 19.8774C46.5508 19.8774 53.1508 -3.42259 68.0508 3.17741C82.9508 9.77741 47.8508 20.6774 47.8508 20.6774" fill="#674289"/>
<path d="M46.5508 19.8774C46.5508 19.8774 53.1508 -3.42259 68.0508 3.17741C82.9508 9.77741 47.8508 20.6774 47.8508 20.6774" stroke="black" stroke-width="3" stroke-linecap="round" stroke-linejoin="round"/>
<path opacity="0.3" d="M51.8508 152.177C76.9245 152.177 97.2508 149.223 97.2508 145.577C97.2508 141.932 76.9245 138.977 51.8508 138.977C26.7771 138.977 6.45081 141.932 6.45081 145.577C6.45081 149.223 26.7771 152.177 51.8508 152.177Z" fill="#4D1D5B"/>
<path d="M43.152 87.9774C43.052 88.1774 49.552 95.7774 56.252 87.4774" stroke="black" stroke-width="3" stroke-linecap="round" stroke-linejoin="round"/>
</svg>